<svg width="40" height="40" fill="none" xmlns="http://www.w3.org/2000/svg"><path d="M40 20c0 5.52-2.24 10.52-5.86 14.14A19.94 19.94 0 0 1 20 40a19.94 19.94 0 0 1-14.14-5.86A19.94 19.94 0 0 1 0 20C0 14.48 2.24 9.48 5.86 5.86A19.94 19.94 0 0 1 20 0c5.52 0 10.52 2.24 14.14 5.86A19.94 19.94 0 0 1 40 20Z" fill="#4D5AE5"/><g clip-path="url(#a)" fill="#F4F4FD"><path d="M28 28v-5.87c0-2.87-.62-5.08-3.97-5.08-1.62 0-2.7.88-3.14 1.72h-.05v-1.45h-3.18V28h3.31V22.7c0-1.4.27-2.74 2-2.74 1.7 0 1.72 1.59 1.72 2.83V28h3.3ZM12.26 17.32h3.32V28h-3.32V17.32ZM13.92 12c-1.06 0-1.92.86-1.92 1.92s.86 1.94 1.92 1.94 1.92-.88 1.92-1.94S14.98 12 13.92 12Z"/></g><defs><clipPath id="a"><path fill="#fff" d="M12 12h16v16H12z"/></clipPath></defs></svg>