<svg width="40" height="40" fill="none" xmlns="http://www.w3.org/2000/svg"><path d="M40 20c0 5.52-2.24 10.52-5.86 14.14A19.94 19.94 0 0 1 20 40a19.94 19.94 0 0 1-14.14-5.86A19.94 19.94 0 0 1 0 20C0 14.48 2.24 9.48 5.86 5.86A19.94 19.94 0 0 1 20 0c5.52 0 10.52 2.24 14.14 5.86A19.94 19.94 0 0 1 40 20Z" fill="#4D5AE5"/><g clip-path="url(#a)"><path d="M22.66 14.66h1.47V12.1C23.87 12.08 23 12 22 12c-2.1 0-3.55 1.32-3.55 3.76V18h-2.33v2.84h2.33V28h2.85v-7.16h2.23l.35-2.84H21.3v-1.96c0-.82.22-1.38 1.36-1.38Z" fill="#F4F4FD"/></g><defs><clipPath id="a"><path fill="#fff" d="M12 12h16v16H12z"/></clipPath></defs></svg>