<svg width="40" height="40" fill="none" xmlns="http://www.w3.org/2000/svg"><path d="M40 20c0 5.52-2.24 10.52-5.86 14.14A19.94 19.94 0 0 1 20 40a19.94 19.94 0 0 1-14.14-5.86A19.94 19.94 0 0 1 0 20C0 14.48 2.24 9.48 5.86 5.86A19.94 19.94 0 0 1 20 0c5.52 0 10.52 2.24 14.14 5.86A19.94 19.94 0 0 1 40 20Z" fill="#4D5AE5"/><g clip-path="url(#a)"><path d="M28 15.04c-.6.26-1.23.43-1.89.52.68-.4 1.2-1.05 1.44-1.82-.63.38-1.33.65-2.08.8a3.29 3.29 0 0 0-5.6 2.99 9.28 9.28 0 0 1-6.76-3.43 3.3 3.3 0 0 0 1.01 4.38 3.24 3.24 0 0 1-1.48-.4v.03a3.3 3.3 0 0 0 2.63 3.23 3.27 3.27 0 0 1-1.48.05 3.31 3.31 0 0 0 3.06 2.28A6.6 6.6 0 0 1 12 25.03a9.23 9.23 0 0 0 5.03 1.47c6.04 0 9.34-5 9.34-9.33l-.01-.43a6.54 6.54 0 0 0 1.64-1.7Z" fill="#F4F4FD"/></g><defs><clipPath id="a"><path fill="#fff" d="M12 12h16v16H12z"/></clipPath></defs></svg>